<?xml version="1.0" encoding="UTF-8"?>
<svg width="1200pt" height="1200pt" version="1.1" viewBox="0 0 1200 1200" xmlns="http://www.w3.org/2000/svg">
 <path d="m783.31 790.9h-366.39c-13.867 0-25.113-11.234-25.133-25.102 0 0-0.23828-188.42-0.23828-371.16 0-67.613 22.746-138.82 67.602-211.66 13.633-22.324 29.18-44.395 47.469-67.398 22.715-28.52 56.746-44.867 93.379-44.867h0.007812c36.633 0.007812 70.66 16.352 93.355 44.848 18.305 23.023 33.848 45.094 47.531 67.496 44.809 72.758 67.555 143.96 67.555 211.58v371.13c0 13.879-11.254 25.133-25.133 25.133zm-341.29-50.266h316.15v-346c0-58.164-20.23-120.51-60.141-185.3-12.641-20.699-27.02-41.113-44.008-62.477-13.094-16.438-32.793-25.875-54.027-25.883-21.238 0-40.941 9.4453-54.047 25.902-16.98 21.348-31.355 41.762-43.949 62.379-39.957 64.871-60.191 127.21-60.191 185.38 0 142.67 0.14844 288.8 0.20703 346zm277.42-544.48c-28.676 34.008-71.453 55.574-119.45 55.574-47.992 0-90.77-21.566-119.45-55.574 14.695-24.055 30.574-45.859 45.742-64.938 37.562-47.16 109.84-47.16 147.41 0 15.168 19.078 31.047 40.883 45.742 64.938zm-119.44 61.859c-47.984 0-93.277-21.07-124.25-57.809l-2.9141-3.4609 2.3555-3.8633c13.273-21.734 28.379-43.18 46.18-65.57 19.109-23.992 47.77-37.742 78.629-37.742h0.007812c30.859 0 59.508 13.75 78.609 37.738 17.809 22.398 32.914 43.844 46.188 65.578l2.3555 3.8633-2.9141 3.4609c-30.977 36.738-76.266 57.809-124.25 57.809zm-111.67-62.492c28.465 31.785 68.91 49.922 111.67 49.922s83.199-18.137 111.66-49.922c-12.414-19.961-26.477-39.762-42.887-60.398-16.695-20.969-41.77-32.992-68.781-32.992-27.012-0.007812-52.082 12.027-68.793 33-16.402 20.629-30.465 40.43-42.879 60.391zm111.67 135.93c-54.871 0-99.355 44.484-99.355 99.355s44.484 99.355 99.355 99.355 99.355-44.484 99.355-99.355-44.484-99.355-99.355-99.355zm0 155.91c-31.238 0-56.559-25.324-56.559-56.559s25.324-56.559 56.559-56.559 56.559 25.324 56.559 56.559-25.324 56.559-56.559 56.559zm-183.08 278.4-78.957 127.82v-128.67c0-31.598 6.3164-62.875 18.586-91.996l60.137-142.77 0.23828 235.61zm-78.957 152.96c-2.2812 0-4.5898-0.30859-6.8672-0.95703-10.805-3.0703-18.27-12.941-18.27-24.176v-128.66c0-35.137 6.9141-69.371 20.555-101.76l60.133-142.77c4.6406-11.02 16.445-17.238 28.129-14.879 11.719 2.3633 20.156 12.652 20.168 24.613l0.23828 235.61c0.007813 4.6758-1.293 9.2578-3.75 13.234l-78.961 127.82c-4.6641 7.5391-12.832 11.922-21.383 11.922zm53.715-264.45-11.965 28.402c-11.027 26.176-16.617 53.844-16.617 82.242v40.148l28.688-46.434-0.10547-104.36zm391.63-124.12 60.137 142.77c12.266 29.121 18.586 60.398 18.586 91.996v128.67l-78.957-127.82 0.23828-235.61zm78.723 388.56c-8.5547 0-16.723-4.375-21.383-11.922l-78.961-127.82c-2.4531-3.9766-3.7539-8.5586-3.75-13.234l0.23828-235.61c0.011719-11.961 8.4492-22.25 20.168-24.613 11.719-2.3555 23.484 3.8594 28.129 14.879l60.133 142.77c13.641 32.387 20.555 66.621 20.555 101.76v128.66c0 11.234-7.4609 21.109-18.27 24.176-2.2773 0.65234-4.5859 0.95703-6.8672 0.95703zm-53.82-160.08 28.688 46.434v-40.148c0-28.398-5.5898-56.066-16.617-82.242l-11.965-28.402-0.10547 104.36zm-208.21 370.65c-13.879 0-25.133-11.254-25.133-25.133v-338.39c0-13.879 11.254-25.133 25.133-25.133s25.133 11.254 25.133 25.133v338.39c0 13.879-11.254 25.133-25.133 25.133zm87.969-202.38c-13.879 0-25.133-11.254-25.133-25.133v-136.01c0-13.879 11.254-25.133 25.133-25.133s25.133 11.254 25.133 25.133v136.01c0 13.879-11.254 25.133-25.133 25.133zm-175.94 0c-13.879 0-25.133-11.254-25.133-25.133v-136.01c0-13.879 11.254-25.133 25.133-25.133s25.133 11.254 25.133 25.133v136.01c0 13.879-11.254 25.133-25.133 25.133zm4.9258 81.723c1.6328-0.25391 3.1406-0.75391 4.6523-1.3828 1.5039-0.625 3.0117-1.3828 4.3945-2.3867 1.3867-0.87891 2.6406-1.8828 3.7734-3.0195 1.2578-1.25 2.2578-2.5078 3.1406-3.8906 0.87891-1.3867 1.7539-2.7656 2.3867-4.2773 0.625-1.5078 1.0078-3.1406 1.3828-4.7734 0.37891-1.6328 0.50391-3.2695 0.50391-4.9023 0-6.5352-2.6406-13.07-7.4141-17.715-1.1367-1.2578-2.3867-2.2656-3.7734-3.1406-1.3828-0.88281-2.8906-1.7617-4.3945-2.3945-1.5078-0.625-3.0195-1-4.6523-1.3828-8.168-1.6328-16.844 1.0078-22.746 6.9141-4.6523 4.6445-7.2891 11.18-7.2891 17.715 0 1.6328 0.12891 3.2695 0.50391 4.9023 0.25391 1.6328 0.75391 3.2656 1.3828 4.7734 0.63281 1.5078 1.3867 2.8906 2.3867 4.2773 0.88281 1.3828 1.8906 2.6406 3.0195 3.8906 4.7734 4.6523 11.188 7.2891 17.844 7.2891 1.6328 0 3.2695-0.12109 4.9023-0.50391zm196.14 17.977v-42.598c0-13.879-11.254-25.133-25.133-25.133s-25.133 11.254-25.133 25.133v42.598c0 13.879 11.254 25.133 25.133 25.133s25.133-11.254 25.133-25.133z"/>
</svg>
