<svg xmlns="http://www.w3.org/2000/svg" viewBox="0 778.3 2402.3 243.3">
  <defs>
    <clipPath id="a">
      <path fill="none" d="M0 778.3h2402.3v243.3H0z"/>
    </clipPath>
  </defs>
  <g clip-path="url(#a)">
    <path fill="#2b215b" fill-rule="evenodd" d="M309.9 787.2c-12.6 5.9-22.2 14.2-28.8 23.7-6.6 10.1-10.2 20.8-10.2 33.2s3.6 27.9 10.8 36.8c7.2 9.5 15.6 16 25.8 20.2 9.6 4.2 22.8 8.9 39.6 13.6 12 3 21.6 5.9 28.2 8.9 6.6 3 12.6 6.5 16.8 10.7 4.2 4.7 6.6 10.1 6.6 17.8s-4.2 18.4-13.2 24.9c-8.4 7.1-20.4 10.1-35.4 10.1-24 0-43.8-8.9-60.7-26.1l-25.2 24.9c8.4 9.5 19.8 17.8 34.8 24.9 15 7.1 31.8 10.7 51.6 10.7s32.4-3 45.6-9.5c13.2-6.5 23.4-14.8 30-25.5 7.2-10.7 10.8-22 10.8-34.4s-3.6-27.9-10.8-36.8c-7.2-9.5-15.6-16-25.8-20.2-10.2-4.2-22.8-8.9-39.6-13.6-12-3-21.6-5.9-28.2-8.9-6.6-3-12.6-6.5-16.8-10.7-4.2-4.7-6.6-10.1-6.6-17.8s4.2-16.6 12-22.6c7.8-5.9 19.2-9.5 33-9.5s19.8 2.4 28.2 6.5c8.4 4.2 16.2 8.9 22.2 14.8l25.8-24.3c-7.8-8.3-18.6-15.4-31.8-21.4-13.2-5.9-28.2-8.9-44.4-8.9-17.4-.6-31.8 2.4-44.4 8.3Zm1202.9 26.2c10.8 1.8 20.4 5.3 30 10.7 13.8 7.7 24.6 18.4 32.4 32 7.8 13.6 12 28.5 12 44.5s-4.2 30.9-12 44.5c-7.8 13.6-18.6 24.3-32.4 32-13.8 7.7-28.8 11.9-45 11.9s-31.2-4.2-45-11.9c-1.8-1.2-3.6-1.8-4.8-3l-13.2 32.6c19.2 10.1 40.2 15.4 63.7 15.4s45.6-5.3 64.9-16c19.8-10.7 34.8-25.5 46.2-43.9 11.4-18.4 16.8-39.2 16.8-61.1s-5.4-42.7-16.8-61.1-26.4-33.2-46.2-43.9c-11.4-6.5-23.4-10.7-36.6-13.6l-13.8 30.9Zm-498.4 0c10.8 1.8 20.4 5.3 30 10.7 13.8 7.7 24.6 18.4 32.4 32 7.8 13.6 12 28.5 12 44.5s-4.2 30.9-12 44.5c-7.8 13.6-18.6 24.3-32.4 32-13.8 7.7-28.8 11.9-45 11.9s-31.2-4.2-45-11.9c-1.8-1.2-3.6-1.8-4.8-3l-13.2 32.6c19.2 10.1 40.2 15.4 63.7 15.4s45.6-5.3 64.9-16c19.8-10.7 34.8-25.5 46.2-43.9 11.4-18.4 16.8-39.2 16.8-61.1s-5.4-42.7-16.8-61.1-26.4-33.2-46.2-43.9c-11.4-6.5-23.4-10.7-36.6-13.6l-13.8 30.9Zm1199.3-31.5v236.8h37.8v-88.4h57.1l49.8 87.8h43.2l-54.6-93.8c13.8-5.9 25.2-14.8 33.6-27.3 8.4-12.5 12.6-26.1 12.6-40.9s-3.6-26.7-10.2-38-16.2-20.2-28.2-26.7-25.8-10.1-40.8-10.1l-100.3.6Zm38.4 33.8h62.5c12 0 22.2 3.6 30 11.3 7.8 7.7 11.4 17.2 11.4 29.1s-3.6 21.4-11.4 29.1c-7.8 7.7-17.4 11.3-30 11.3h-62.5v-80.7Zm-269-33.8v236.8h174.8v-33.8h-136.3v-72.4h105.7v-33.8h-105.7v-62.9h133.3V782h-171.8Zm-93.1 0-91.3 114.5h-.6l-91.3-114.5H1672v236.8h37.8V845.4h1.2l86.5 108.6 86.5-108.6h1.2v173.3h37.8V781.9h-33Zm-545.3 0v172.7h-1.2l-132.1-172.7h-34.2v236.8h37.8V845.4h1.2l132.1 172.7h34.8V781.9h-38.4Zm-634.2 0v236.8h37.8v-88.4h57.1l49.8 87.8h43.2l-54.7-93.8c13.8-5.9 25.2-14.8 33.6-27.3 8.4-12.5 12.6-26.1 12.6-40.9s-3.6-26.7-10.2-38-16.2-20.2-28.2-26.7-25.8-10.1-40.8-10.1l-100.3.6Zm37.8 33.8h62.5c12 0 22.2 3.6 30 11.3 7.8 7.7 11.4 17.2 11.4 29.1s-3.6 21.4-11.4 29.1c-7.8 7.7-17.4 11.3-30 11.3h-62.5v-80.7Zm-275.1-33.8v33.8h72.7v203h37.8v-203h72.7v-33.8H473.2Zm-376.5 0L0 1018.1h39l24-60.5h106.9l24.6 60.5h40.2l-62.5-152.5h-39l22.8 58.2H76.7L133.2 782H96.6Z"/>
  </g>
</svg>
